<svg id="Layer_1" data-name="Layer 1" xmlns="http://www.w3.org/2000/svg" viewBox="0 0 669.83 119.05"><defs><style>.cls-1{fill:##282828;}</style></defs><title>main</title><rect class="cls-1" x="378.05" y="68.16" width="49.87" height="19.95" rx="9.02" ry="9.02"/><path class="cls-1" d="M87.2,140a60,60,0,0,1-30.1-7.56A56.1,56.1,0,0,1,36,111.61a57.49,57.49,0,0,1-7.79-29.74,57.67,57.67,0,0,1,7.67-29.63,57,57,0,0,1,50-28.46q15.57,0,27.54,7.2a51.2,51.2,0,0,1,18.81,19.75Q139,63.29,139,79.31a48.42,48.42,0,0,1-.35,5.7q-.34,2.89-1,6.38H46.07V70.48h78.3l-9.52,8.36q-.48-10.22-3.95-17.19A25,25,0,0,0,101,51q-6.4-3.72-15.69-3.71a33.17,33.17,0,0,0-17,4.18A28.54,28.54,0,0,0,57.22,63.16q-4,7.56-4,18a38.67,38.67,0,0,0,4.19,18.36,29.58,29.58,0,0,0,11.85,12.2A35.45,35.45,0,0,0,87,116a41.23,41.23,0,0,0,15.92-3,33.06,33.06,0,0,0,12.43-8.83l16.27,16.5a52.11,52.11,0,0,1-19.76,14.41A63,63,0,0,1,87.2,140Z" transform="translate(-28.17 -20.91)"/><path class="cls-1" d="M646.18,138a60,60,0,0,1-30.09-7.56,56.13,56.13,0,0,1-21.15-20.79,57.57,57.57,0,0,1-7.78-29.74,57.66,57.66,0,0,1,7.66-29.63,57,57,0,0,1,50-28.46q15.56,0,27.53,7.2a51.23,51.23,0,0,1,18.82,19.75A58.65,58.65,0,0,1,698,77.31a48.42,48.42,0,0,1-.35,5.7q-.35,2.89-1,6.38H605.05V68.48h78.31l-9.53,8.36q-.47-10.22-4-17.19A25,25,0,0,0,660,49q-6.4-3.72-15.69-3.71a33.14,33.14,0,0,0-17,4.18,28.48,28.48,0,0,0-11.15,11.73q-4,7.56-4,18a38.67,38.67,0,0,0,4.19,18.36,29.52,29.52,0,0,0,11.85,12.2A35.43,35.43,0,0,0,646,114a41.18,41.18,0,0,0,15.91-3,33,33,0,0,0,12.44-8.83l16.26,16.5a52,52,0,0,1-19.75,14.41A63,63,0,0,1,646.18,138Z" transform="translate(-28.17 -20.91)"/><path class="cls-1" d="M583.16,21.09V48a12.75,12.75,0,0,0-2.6-.27c-12.6,0-20.73,14.75-31.72,37.18-12,24.49-25.56,52.2-55.77,52.2s-43.79-27.71-55.77-52.2c-11-22.43-19.13-37.18-31.64-37.18S384.93,62.47,373.93,84.9c-12,24.49-25.56,52.2-55.76,52.2s-43.8-27.71-55.77-52.2c-11-22.43-19.13-37.18-31.64-37.18S210,62.47,199,84.9c-6.17,12.51-12.69,25.92-21.63,36a52.56,52.56,0,0,1-13.94,11.26l-22-22c.62,0,1.25.09,1.78.09,5.72,0,10.46-3,15-8.49C163.82,95.27,169,85.35,175,73.1c12-24.48,25.56-52.19,55.77-52.19s43.79,27.71,55.77,52.19c11,22.44,19.12,37.18,31.64,37.18S338.9,95.54,349.89,73.1c11.89-24.48,25.47-52.19,55.77-52.19s43.79,27.71,55.77,52.19c10.9,22.44,19.13,37.18,31.64,37.18S513.8,95.54,524.8,73.1c11.88-24.48,25.47-52.19,55.76-52.19A12.64,12.64,0,0,1,583.16,21.09Z" transform="translate(-28.17 -20.91)"/></svg>